<svg width="66" height="66" viewBox="0 0 66 66" fill="none" xmlns="http://www.w3.org/2000/svg">
<circle cx="33" cy="33" r="32.5" fill="#191919" stroke="#C8711A"/>
<circle cx="33" cy="33" r="27" stroke="url(#paint0_linear_590_1935)" stroke-width="4"/>
<path d="M31.1289 22.5C32.6884 22.5 34.1513 23.2567 35.0527 24.5293L37.8535 28.4824L37.9561 28.6396C38.4059 29.3859 38.4399 30.3127 38.0459 31.0898L37.9551 31.2539C37.0433 32.764 34.9218 32.8913 33.8291 31.5498L33.7266 31.415L33.1221 30.5674C32.2285 29.3139 30.3762 29.34 29.5088 30.5762L29.4277 30.6992L21.8896 43.0537C21.4228 43.8188 20.5906 44.2861 19.6943 44.2861C17.6863 44.2859 16.4533 42.0861 17.501 40.373L27.0273 24.7988L27.1992 24.5381C28.0959 23.2656 29.5594 22.5001 31.1289 22.5Z" fill="#0064F9" stroke="#005ADF"/>
<path d="M35.8711 44.3571C34.3116 44.3571 32.8487 43.6004 31.9473 42.3278L29.1465 38.3747L29.0439 38.2175C28.5941 37.4712 28.5601 36.5444 28.9541 35.7673L29.0449 35.6032C29.9567 34.0931 32.0782 33.9658 33.1709 35.3073L33.2734 35.4421L33.8779 36.2897C34.7715 37.5432 36.6238 37.5171 37.4912 36.2809L37.5723 36.1579L45.1104 23.8034C45.5772 23.0383 46.4094 22.571 47.3057 22.571C49.3137 22.5712 50.5467 24.771 49.499 26.4841L39.9727 42.0583L39.8008 42.319C38.9042 43.5915 37.4406 44.357 35.8711 44.3571Z" fill="#6B00F5" stroke="#6B00F5"/>
<defs>
<linearGradient id="paint0_linear_590_1935" x1="17.05" y1="5.93333" x2="50.8833" y2="58.1333" gradientUnits="userSpaceOnUse">
<stop stop-color="#E4A94C"/>
<stop offset="1" stop-color="#C66D16"/>
</linearGradient>
</defs>
</svg>
